<?xml version="1.0" encoding="utf-8"?>
<!-- Generator: Adobe Illustrator 30.2.1, SVG Export Plug-In . SVG Version: 9.03 Build 0)  -->
<svg version="1.1" id="Ebene_1" xmlns="http://www.w3.org/2000/svg" xmlns:xlink="http://www.w3.org/1999/xlink" x="0px" y="0px"
	 viewBox="0 0 128 128" style="enable-background:new 0 0 128 128;" xml:space="preserve">
<style type="text/css">
	.st0{fill:#007FB0;}
</style>
<g>
	<path class="st0" d="M5.21,70.89l7.76-0.75c0.47,2.61,1.42,4.52,2.84,5.74c1.43,1.22,3.36,1.83,5.78,1.83
		c2.57,0,4.51-0.54,5.81-1.63c1.3-1.09,1.96-2.36,1.96-3.81c0-0.93-0.27-1.73-0.82-2.39c-0.55-0.66-1.51-1.23-2.87-1.71
		c-0.93-0.32-3.06-0.9-6.39-1.73c-4.28-1.06-7.28-2.36-9-3.91c-2.43-2.17-3.64-4.83-3.64-7.95c0-2.01,0.57-3.9,1.71-5.65
		c1.14-1.75,2.79-3.09,4.93-4s4.74-1.37,7.78-1.37c4.96,0,8.69,1.09,11.2,3.26s3.82,5.08,3.95,8.71l-7.98,0.35
		c-0.34-2.03-1.07-3.49-2.2-4.38s-2.81-1.33-5.05-1.33c-2.32,0-4.13,0.48-5.45,1.43c-0.84,0.61-1.27,1.43-1.27,2.45
		c0,0.93,0.39,1.73,1.19,2.4c1.01,0.84,3.45,1.73,7.33,2.64s6.75,1.86,8.61,2.84c1.86,0.98,3.32,2.32,4.37,4.02
		c1.05,1.7,1.58,3.8,1.58,6.29c0,2.26-0.63,4.38-1.89,6.36c-1.26,1.98-3.04,3.45-5.34,4.41c-2.3,0.96-5.17,1.44-8.6,1.44
		c-5,0-8.83-1.16-11.51-3.46S5.73,75.31,5.21,70.89z"/>
	<path class="st0" d="M43.94,83.75V44.23h11.94l7.17,26.96l7.09-26.96h11.97v39.52H74.7V52.64l-7.84,31.11h-7.68l-7.82-31.11v31.11
		H43.94z"/>
	<path class="st0" d="M100.12,83.75L86,44.23h8.65l10,29.25l9.68-29.25h8.46l-14.15,39.52H100.12z"/>
</g>
</svg>
